<mxfile host="app.diagrams.net" agent="Mozilla/5.0 (Windows NT 10.0; Win64; x64) AppleWebKit/537.36 (KHTML, like Gecko) Chrome/131.0.0.0 Safari/537.36" version="26.0.1">
  <diagram id="RTHZLrYfbj5EfRwcWYRt" name="第 1 页">
    <mxGraphModel dx="1323" dy="743" grid="1" gridSize="10" guides="1" tooltips="1" connect="1" arrows="1" fold="1" page="0" pageScale="1" pageWidth="827" pageHeight="1169" math="0" shadow="0">
      <root>
        <mxCell id="0" />
        <mxCell id="1" parent="0" />
        <mxCell id="nlHF0WO0mynKGdt7IZYZ-10" value="" style="edgeStyle=orthogonalEdgeStyle;rounded=0;orthogonalLoop=1;jettySize=auto;html=1;" edge="1" parent="1" source="nlHF0WO0mynKGdt7IZYZ-1" target="nlHF0WO0mynKGdt7IZYZ-2">
          <mxGeometry relative="1" as="geometry" />
        </mxCell>
        <mxCell id="nlHF0WO0mynKGdt7IZYZ-1" value="Start" style="strokeWidth=2;html=1;shape=mxgraph.flowchart.start_1;whiteSpace=wrap;fillColor=#dae8fc;strokeColor=#6c8ebf;" vertex="1" parent="1">
          <mxGeometry x="330" y="210" width="100" height="60" as="geometry" />
        </mxCell>
        <mxCell id="nlHF0WO0mynKGdt7IZYZ-11" value="" style="edgeStyle=orthogonalEdgeStyle;rounded=0;orthogonalLoop=1;jettySize=auto;html=1;" edge="1" parent="1" source="nlHF0WO0mynKGdt7IZYZ-2" target="nlHF0WO0mynKGdt7IZYZ-3">
          <mxGeometry relative="1" as="geometry" />
        </mxCell>
        <mxCell id="nlHF0WO0mynKGdt7IZYZ-2" value="Input user or username" style="shape=parallelogram;html=1;strokeWidth=2;perimeter=parallelogramPerimeter;whiteSpace=wrap;rounded=1;arcSize=12;size=0.23;fillColor=#d5e8d4;strokeColor=#82b366;" vertex="1" parent="1">
          <mxGeometry x="320" y="370" width="120" height="60" as="geometry" />
        </mxCell>
        <mxCell id="nlHF0WO0mynKGdt7IZYZ-12" value="" style="edgeStyle=orthogonalEdgeStyle;rounded=0;orthogonalLoop=1;jettySize=auto;html=1;" edge="1" parent="1" source="nlHF0WO0mynKGdt7IZYZ-3" target="nlHF0WO0mynKGdt7IZYZ-5">
          <mxGeometry relative="1" as="geometry" />
        </mxCell>
        <mxCell id="nlHF0WO0mynKGdt7IZYZ-3" value="Search by user and username" style="rounded=1;whiteSpace=wrap;html=1;absoluteArcSize=1;arcSize=14;strokeWidth=2;fillColor=#f8cecc;strokeColor=#b85450;" vertex="1" parent="1">
          <mxGeometry x="320" y="530" width="120" height="60" as="geometry" />
        </mxCell>
        <mxCell id="nlHF0WO0mynKGdt7IZYZ-13" value="" style="edgeStyle=orthogonalEdgeStyle;rounded=0;orthogonalLoop=1;jettySize=auto;html=1;" edge="1" parent="1" source="nlHF0WO0mynKGdt7IZYZ-5" target="nlHF0WO0mynKGdt7IZYZ-6">
          <mxGeometry relative="1" as="geometry" />
        </mxCell>
        <mxCell id="nlHF0WO0mynKGdt7IZYZ-5" value="List users" style="shape=parallelogram;html=1;strokeWidth=2;perimeter=parallelogramPerimeter;whiteSpace=wrap;rounded=1;arcSize=12;size=0.23;fillColor=#d5e8d4;strokeColor=#82b366;" vertex="1" parent="1">
          <mxGeometry x="320" y="690" width="120" height="60" as="geometry" />
        </mxCell>
        <mxCell id="nlHF0WO0mynKGdt7IZYZ-14" value="" style="edgeStyle=orthogonalEdgeStyle;rounded=0;orthogonalLoop=1;jettySize=auto;html=1;" edge="1" parent="1" source="nlHF0WO0mynKGdt7IZYZ-6" target="nlHF0WO0mynKGdt7IZYZ-7">
          <mxGeometry relative="1" as="geometry" />
        </mxCell>
        <mxCell id="nlHF0WO0mynKGdt7IZYZ-6" value="Select an user" style="rounded=1;whiteSpace=wrap;html=1;absoluteArcSize=1;arcSize=14;strokeWidth=2;fillColor=#f8cecc;strokeColor=#b85450;" vertex="1" parent="1">
          <mxGeometry x="320" y="850" width="120" height="60" as="geometry" />
        </mxCell>
        <mxCell id="nlHF0WO0mynKGdt7IZYZ-15" value="" style="edgeStyle=orthogonalEdgeStyle;rounded=0;orthogonalLoop=1;jettySize=auto;html=1;" edge="1" parent="1" source="nlHF0WO0mynKGdt7IZYZ-7" target="nlHF0WO0mynKGdt7IZYZ-9">
          <mxGeometry relative="1" as="geometry" />
        </mxCell>
        <mxCell id="nlHF0WO0mynKGdt7IZYZ-7" value="Confirm delete?" style="strokeWidth=2;html=1;shape=mxgraph.flowchart.decision;whiteSpace=wrap;fillColor=#e1d5e7;strokeColor=#9673a6;" vertex="1" parent="1">
          <mxGeometry x="320" y="1000" width="120" height="80" as="geometry" />
        </mxCell>
        <mxCell id="nlHF0WO0mynKGdt7IZYZ-18" value="" style="edgeStyle=orthogonalEdgeStyle;rounded=0;orthogonalLoop=1;jettySize=auto;html=1;" edge="1" parent="1" source="nlHF0WO0mynKGdt7IZYZ-9" target="nlHF0WO0mynKGdt7IZYZ-17">
          <mxGeometry relative="1" as="geometry" />
        </mxCell>
        <mxCell id="nlHF0WO0mynKGdt7IZYZ-9" value="Delete the user" style="rounded=1;whiteSpace=wrap;html=1;absoluteArcSize=1;arcSize=14;strokeWidth=2;fillColor=#f8cecc;strokeColor=#b85450;" vertex="1" parent="1">
          <mxGeometry x="320" y="1170" width="120" height="60" as="geometry" />
        </mxCell>
        <mxCell id="nlHF0WO0mynKGdt7IZYZ-16" value="End" style="strokeWidth=2;html=1;shape=mxgraph.flowchart.start_1;whiteSpace=wrap;fillColor=#dae8fc;strokeColor=#6c8ebf;" vertex="1" parent="1">
          <mxGeometry x="330" y="1490" width="100" height="60" as="geometry" />
        </mxCell>
        <mxCell id="nlHF0WO0mynKGdt7IZYZ-19" value="" style="edgeStyle=orthogonalEdgeStyle;rounded=0;orthogonalLoop=1;jettySize=auto;html=1;" edge="1" parent="1" source="nlHF0WO0mynKGdt7IZYZ-17" target="nlHF0WO0mynKGdt7IZYZ-16">
          <mxGeometry relative="1" as="geometry" />
        </mxCell>
        <mxCell id="nlHF0WO0mynKGdt7IZYZ-17" value="Output the delete success message" style="shape=parallelogram;html=1;strokeWidth=2;perimeter=parallelogramPerimeter;whiteSpace=wrap;rounded=1;arcSize=12;size=0.23;fillColor=#d5e8d4;strokeColor=#82b366;" vertex="1" parent="1">
          <mxGeometry x="310" y="1330" width="140" height="60" as="geometry" />
        </mxCell>
      </root>
    </mxGraphModel>
  </diagram>
</mxfile>
